<svg width="400" height="120" viewBox="0 0 400 120" xmlns="http://www.w3.org/2000/svg">
  <defs>
    <style>
      @import url('https://fonts.googleapis.com/css2?family=Cormorant+Garamond:wght@400;600&amp;family=Montserrat:wght@300;400&amp;display=swap');
    </style>
    <clipPath id="lc">
      <polygon points="44,8 80,34 44,60 8,34"/>
    </clipPath>
  </defs>
  <polygon points="44,8 80,34 44,60 8,34" fill="#375A49"/>
  <line x1="8" y1="34" x2="80" y2="34" stroke="#F5F0E6" stroke-width="0.6" opacity="0.3" clip-path="url(#lc)"/>
  <line x1="16" y1="22" x2="72" y2="22" stroke="#F5F0E6" stroke-width="0.6" opacity="0.2" clip-path="url(#lc)"/>
  <line x1="16" y1="46" x2="72" y2="46" stroke="#F5F0E6" stroke-width="0.6" opacity="0.2" clip-path="url(#lc)"/>
  <line x1="26" y1="8" x2="26" y2="60" stroke="#F5F0E6" stroke-width="0.6" opacity="0.15" clip-path="url(#lc)"/>
  <line x1="44" y1="8" x2="44" y2="60" stroke="#F5F0E6" stroke-width="0.6" opacity="0.15" clip-path="url(#lc)"/>
  <line x1="62" y1="8" x2="62" y2="60" stroke="#F5F0E6" stroke-width="0.6" opacity="0.15" clip-path="url(#lc)"/>
  <polygon points="44,8 80,34 44,60 8,34" fill="none" stroke="#2a4a3a" stroke-width="1"/>
  <text x="44" y="40" font-family="'Cormorant Garamond', serif" font-size="26" font-weight="600" fill="#F5F0E6" text-anchor="middle">E</text>
  <text x="96" y="30" font-family="'Cormorant Garamond', serif" font-size="28" font-weight="600" fill="#375A49" letter-spacing="1.5">EDGEHILL</text>
  <text x="97" y="46" font-family="'Montserrat', sans-serif" font-size="9" font-weight="300" fill="#375A49" letter-spacing="6">CRAFTS</text>
  <line x1="96" y1="56" x2="340" y2="56" stroke="#E2B659" stroke-width="0.6"/>
  <text x="96" y="70" font-family="'Montserrat', sans-serif" font-size="7" font-weight="400" fill="#716a56" letter-spacing="2">MADE PROPERLY IN THE UK</text>
</svg>